<svg width="55" height="38" viewBox="0 0 55 38" fill="none" xmlns="http://www.w3.org/2000/svg">
<rect x="0.953763" y="0.388821" width="53.6574" height="36.5492" rx="4.27704" fill="white" stroke="#D9D9D9" stroke-width="0.777643"/>
<path fill-rule="evenodd" clip-rule="evenodd" d="M13.5456 13.8935C14.2767 13.9552 15.0077 13.5235 15.4646 12.9762C15.9139 12.4135 16.2109 11.6581 16.1348 10.8872C15.4875 10.918 14.6879 11.3189 14.231 11.8816C13.8122 12.3672 13.4543 13.1535 13.5456 13.8935ZM22.2421 23.8221V11.8046H26.6969C28.9966 11.8046 30.6034 13.4079 30.6034 15.7513C30.6034 18.0947 28.9662 19.7135 26.636 19.7135H24.0849V23.8221H22.2421ZM16.1271 14.0401C15.483 14.0026 14.8954 14.2362 14.4207 14.4249C14.1152 14.5463 13.8566 14.6491 13.6598 14.6491C13.4389 14.6491 13.1696 14.5408 12.8672 14.4192C12.4709 14.2598 12.0179 14.0776 11.5428 14.0864C10.4538 14.1018 9.44103 14.7262 8.88513 15.7206C7.74287 17.7094 8.58814 20.654 9.69233 22.2728C10.233 23.0745 10.8803 23.9532 11.7332 23.9224C12.1084 23.908 12.3783 23.7921 12.6576 23.6721C12.9792 23.534 13.3133 23.3905 13.8349 23.3905C14.3385 23.3905 14.6579 23.5303 14.9646 23.6644C15.2562 23.792 15.5362 23.9145 15.9519 23.907C16.8353 23.8915 17.3912 23.1053 17.9318 22.3036C18.5153 21.4432 18.7717 20.6035 18.8106 20.476L18.8106 20.476L18.8152 20.4613C18.8143 20.4603 18.8071 20.457 18.7943 20.4511C18.5993 20.3607 17.1085 19.6699 17.0942 17.8173C17.0798 16.2623 18.2767 15.4745 18.4651 15.3504C18.4765 15.3429 18.4843 15.3378 18.4877 15.3352C17.7262 14.1943 16.5383 14.071 16.1271 14.0401ZM33.9694 23.9145C35.1269 23.9145 36.2006 23.3209 36.6879 22.3805H36.726V23.822H38.4318V17.8402C38.4318 16.1058 37.0611 14.9881 34.9517 14.9881C32.9946 14.9881 31.5478 16.1212 31.4945 17.6783H33.1545C33.2916 16.9383 33.9694 16.4527 34.8984 16.4527C36.0254 16.4527 36.6575 16.9845 36.6575 17.9635V18.6265L34.3577 18.7652C32.2179 18.8962 31.0604 19.7827 31.0604 21.3244C31.0604 22.8815 32.256 23.9145 33.9694 23.9145ZM34.4642 22.4883C33.4819 22.4883 32.8575 22.0104 32.8575 21.2781C32.8575 20.5227 33.4591 20.0833 34.6089 20.0139L36.6574 19.8829V20.5612C36.6574 21.6867 35.7131 22.4883 34.4642 22.4883ZM44.0897 24.2923C43.3511 26.3968 42.5058 27.0905 40.7086 27.0905C40.5715 27.0905 40.1146 27.0751 40.008 27.0443V25.6028C40.1223 25.6182 40.404 25.6336 40.5487 25.6336C41.3635 25.6336 41.8204 25.2867 42.1022 24.3849L42.2697 23.853L39.1475 15.1039H41.0741L43.2444 22.2034H43.2825L45.4528 15.1039H47.3261L44.0897 24.2923ZM24.0848 13.377H26.2094C27.8086 13.377 28.7224 14.2403 28.7224 15.7589C28.7224 17.2774 27.8086 18.1485 26.2018 18.1485H24.0848V13.377Z" fill="black"/>
</svg>
