<?xml version="1.0" encoding="utf-8"?>
<!-- Generator: Adobe Illustrator 27.8.1, SVG Export Plug-In . SVG Version: 6.00 Build 0)  -->
<svg version="1.1" id="Layer_1" xmlns="http://www.w3.org/2000/svg" xmlns:xlink="http://www.w3.org/1999/xlink" x="0px" y="0px"
	 viewBox="0 0 210.1 39" style="enable-background:new 0 0 210.1 39;" xml:space="preserve">
<style type="text/css">
	.st0{fill:url(#SVGID_1_);}
	.st1{fill:url(#SVGID_00000157284918783702010630000012283748394198365578_);}
	.st2{fill:url(#SVGID_00000136410763107825384030000005929074550847822516_);}
	.st3{fill:url(#SVGID_00000125577918638515472190000013958342325434379440_);}
	.st4{fill:url(#SVGID_00000149355591415879826170000004314019724087444913_);}
</style>
<g>
	<g>
		<linearGradient id="SVGID_1_" gradientUnits="userSpaceOnUse" x1="0.9652" y1="5.0923" x2="32.0948" y2="40.3871">
			<stop  offset="0" style="stop-color:#28BAAB"/>
			<stop  offset="1" style="stop-color:#0376AD"/>
		</linearGradient>
		<path class="st0" d="M30.9,24.6H18.2c-0.5,0-0.9,0.4-0.9,0.9v12.5c0,0.5,0.4,0.9,0.9,0.9h10.3c1.8,0,3.3-1.5,3.3-3.3V25.6
			C31.8,25.1,31.4,24.6,30.9,24.6z"/>
		
			<linearGradient id="SVGID_00000105399243744008388780000002905720040791211662_" gradientUnits="userSpaceOnUse" x1="-1.5341" y1="7.2967" x2="29.5955" y2="42.5915">
			<stop  offset="0" style="stop-color:#28BAAB"/>
			<stop  offset="1" style="stop-color:#0376AD"/>
		</linearGradient>
		<path style="fill:url(#SVGID_00000105399243744008388780000002905720040791211662_);" d="M0.9,22.2H9c0.5,0,0.9-0.4,0.9-0.9V8.1
			C10,7.6,9.5,7.1,9,7.1H3.3C1.5,7.1,0,8.6,0,10.5v10.8C0,21.8,0.4,22.2,0.9,22.2z"/>
		
			<linearGradient id="SVGID_00000004512151206004042300000018196981819311437712_" gradientUnits="userSpaceOnUse" x1="-8.2889" y1="13.2543" x2="22.8407" y2="48.5491">
			<stop  offset="0" style="stop-color:#28BAAB"/>
			<stop  offset="1" style="stop-color:#0376AD"/>
		</linearGradient>
		<path style="fill:url(#SVGID_00000004512151206004042300000018196981819311437712_);" d="M13.9,24.6h-2.3H10h-9
			c-0.5,0-0.9,0.4-0.9,0.9v10.1C0,37.5,1.5,39,3.3,39h10.6c0.5,0,0.9-0.4,0.9-0.9V25.6C14.8,25.1,14.4,24.6,13.9,24.6z"/>
		
			<linearGradient id="SVGID_00000163757166084013972030000012645337070373720969_" gradientUnits="userSpaceOnUse" x1="9.612" y1="-2.5341" x2="40.7416" y2="32.7608">
			<stop  offset="0" style="stop-color:#28BAAB"/>
			<stop  offset="1" style="stop-color:#0376AD"/>
		</linearGradient>
		<path style="fill:url(#SVGID_00000163757166084013972030000012645337070373720969_);" d="M30.7,5.4h-2.2H28h0H20h-5.2
			c-0.5,0-0.9,0.4-0.9,0.9v13.2c0,0.5,0.4,0.9,0.9,0.9h18.3c0.5,0,0.9-0.4,0.9-0.9v-6.5v-1.5v0v-0.9V8.8C34.1,6.9,32.6,5.4,30.7,5.4
			z"/>
		
			<linearGradient id="SVGID_00000102514953019609944990000005121760893669839802_" gradientUnits="userSpaceOnUse" x1="21.2224" y1="-12.7743" x2="52.3521" y2="22.5205">
			<stop  offset="0" style="stop-color:#28BAAB"/>
			<stop  offset="1" style="stop-color:#0376AD"/>
		</linearGradient>
		<path style="fill:url(#SVGID_00000102514953019609944990000005121760893669839802_);" d="M39.7,3.8c-2-0.2-3.6-1.8-3.8-3.8
			c0,0,0,0-0.1,0c-0.2,2-1.8,3.6-3.8,3.8c0,0,0,0,0,0.1c2,0.2,3.6,1.8,3.8,3.8c0,0,0,0,0.1,0C36.1,5.7,37.7,4.1,39.7,3.8
			C39.8,3.9,39.8,3.8,39.7,3.8z"/>
	</g>
	<g>
		<path d="M55.1,12.2v3.9h-8.2v4.2H53v3.8h-6.1v8.1H42v-20H55.1z"/>
		<path d="M68.8,32.2l-4.2-7.6h-1.2v7.6h-4.9v-20h8.2c1.6,0,2.9,0.3,4,0.8c1.1,0.6,1.9,1.3,2.5,2.3c0.6,1,0.8,2,0.8,3.2
			c0,1.3-0.4,2.5-1.1,3.6c-0.8,1-1.9,1.8-3.3,2.2l4.6,7.9H68.8z M63.4,21.2h3c0.9,0,1.6-0.2,2-0.7c0.4-0.4,0.7-1.1,0.7-1.9
			c0-0.8-0.2-1.4-0.7-1.8c-0.4-0.4-1.1-0.7-2-0.7h-3V21.2z"/>
		<path d="M90.5,28.7h-7.5l-1.2,3.5h-5.1l7.3-20h5.7l7.3,20h-5.2L90.5,28.7z M89.3,24.9l-2.5-7.3l-2.5,7.3H89.3z"/>
		<path d="M122.7,12.2v20h-4.9v-12l-4.5,12h-3.9l-4.5-12v12H100v-20h5.8l5.6,13.9l5.6-13.9H122.7z"/>
		<path d="M132,16.1v4.1h6.5v3.8H132v4.4h7.4v3.9h-12.3v-20h12.3v3.9H132z"/>
		<path d="M157.9,12.2v3.9h-5.3v16.1h-4.9V16.1h-5.3v-3.9H157.9z"/>
		<path d="M173.8,28.7h-7.5l-1.2,3.5H160l7.3-20h5.7l7.3,20H175L173.8,28.7z M172.5,24.9l-2.5-7.3l-2.5,7.3H172.5z"/>
		<path d="M188.1,28.4h6.4v3.8h-11.3v-20h4.9V28.4z"/>
		<path d="M202.7,16.1v4.1h6.5v3.8h-6.5v4.4h7.4v3.9h-12.3v-20h12.3v3.9H202.7z"/>
	</g>
</g>
</svg>
