<svg width="164" height="161" viewBox="0 0 164 161" fill="none" xmlns="http://www.w3.org/2000/svg">
<path d="M127.359 101.601H75.0363C72.8888 101.601 71.1957 103.335 71.1957 105.441V156.98C71.1957 159.127 72.9301 160.82 75.0363 160.82H117.489C125.088 160.82 131.241 154.667 131.241 147.068V105.4C131.241 103.252 129.507 101.559 127.401 101.559L127.359 101.601Z" fill="url(#paint0_linear_3592_1315)"/>
<path d="M3.8406 91.6893H37.2084C39.3559 91.6893 41.049 89.9549 41.049 87.8487V33.3369C41.049 31.1895 39.3146 29.4963 37.2084 29.4963H13.7518C6.15323 29.4963 0 35.6496 0 43.2482V87.8487C0 89.9962 1.73447 91.6893 3.8406 91.6893Z" fill="url(#paint1_linear_3592_1315)"/>
<path d="M57.4026 101.6H3.8406C1.69317 101.6 0 103.335 0 105.441V147.109C0 154.708 6.15323 160.861 13.7518 160.861H57.4026C59.55 160.861 61.2432 159.127 61.2432 157.021V105.482C61.2432 103.335 59.5087 101.642 57.4026 101.642V101.6Z" fill="url(#paint2_linear_3592_1315)"/>
<path d="M126.74 22.4758H61.0366C58.8892 22.4758 57.196 24.2103 57.196 26.3164V80.8282C57.196 82.9757 58.9305 84.6688 61.0366 84.6688H136.651C138.799 84.6688 140.492 82.9344 140.492 80.8282V36.2277C140.492 28.629 134.339 22.4758 126.74 22.4758Z" fill="url(#paint3_linear_3592_1315)"/>
<path d="M163.907 15.827C155.648 14.9185 149.082 8.35228 148.173 0.0929178C148.173 -0.0309726 147.967 -0.0309726 147.967 0.0929178C147.058 8.35228 140.492 14.9185 132.232 15.827C132.109 15.827 132.109 16.0335 132.232 16.0335C140.492 16.942 147.058 23.5082 147.967 31.7676C147.967 31.8915 148.173 31.8915 148.173 31.7676C149.082 23.5082 155.648 16.942 163.907 16.0335C164.031 16.0335 164.031 15.827 163.907 15.827Z" fill="url(#paint4_linear_3592_1315)"/>
<defs>
<linearGradient id="paint0_linear_3592_1315" x1="3.96446" y1="21.0305" x2="132.398" y2="166.602" gradientUnits="userSpaceOnUse">
<stop stop-color="#2ABBAD"/>
<stop offset="1" stop-color="#0777AE"/>
</linearGradient>
<linearGradient id="paint1_linear_3592_1315" x1="-6.31842" y1="30.1158" x2="122.073" y2="175.728" gradientUnits="userSpaceOnUse">
<stop stop-color="#2ABBAD"/>
<stop offset="1" stop-color="#0777AE"/>
</linearGradient>
<linearGradient id="paint2_linear_3592_1315" x1="-34.1938" y1="54.6872" x2="94.2393" y2="200.3" gradientUnits="userSpaceOnUse">
<stop stop-color="#2ABBAD"/>
<stop offset="1" stop-color="#0777AE"/>
</linearGradient>
<linearGradient id="paint3_linear_3592_1315" x1="39.6449" y1="-10.4377" x2="168.078" y2="135.175" gradientUnits="userSpaceOnUse">
<stop stop-color="#2ABBAD"/>
<stop offset="1" stop-color="#0777AE"/>
</linearGradient>
<linearGradient id="paint4_linear_3592_1315" x1="87.5493" y1="-52.6844" x2="215.941" y2="92.9281" gradientUnits="userSpaceOnUse">
<stop stop-color="#2ABBAD"/>
<stop offset="1" stop-color="#0777AE"/>
</linearGradient>
</defs>
</svg>
