<svg width="18" height="19" viewBox="0 0 18 19" fill="none" xmlns="http://www.w3.org/2000/svg">
<path d="M18 1.45097V16.8039C18 17.1549 17.8606 17.4916 17.6123 17.7398C17.3641 17.988 17.0275 18.1274 16.6765 18.1274H1.32353C0.972508 18.1274 0.635863 17.988 0.387653 17.7398C0.139443 17.4916 0 17.1549 0 16.8039V1.45097C0 1.09995 0.139443 0.763304 0.387653 0.515094C0.635863 0.266884 1.32353 0.127441 1.32353 0.127441H16.6765C17.0275 0.127441 17.3641 0.266884 17.6123 0.515094C17.8606 0.763304 18 1.09995 18 1.45097ZM5.29412 7.00979H2.64706V15.4804H5.29412V7.00979ZM5.53235 4.09803C5.53375 3.8978 5.49569 3.69926 5.42035 3.51374C5.34502 3.32822 5.23387 3.15935 5.09328 3.01679C4.95268 2.87422 4.78537 2.76075 4.60091 2.68284C4.41646 2.60493 4.21846 2.56412 4.01824 2.56274H3.97059C3.5634 2.56274 3.1729 2.72449 2.88497 3.01241C2.59705 3.30034 2.43529 3.69084 2.43529 4.09803C2.43529 4.50522 2.59705 4.89572 2.88497 5.18365C3.1729 5.47157 3.5634 5.63332 3.97059 5.63332C4.17083 5.63825 4.37008 5.60367 4.55696 5.53157C4.74383 5.45946 4.91467 5.35124 5.0597 5.21309C5.20474 5.07494 5.32113 4.90956 5.40223 4.72641C5.48333 4.54326 5.52754 4.34592 5.53235 4.14568V4.09803ZM15.3529 10.3345C15.3529 7.78803 13.7329 6.79803 12.1235 6.79803C11.5966 6.77164 11.0719 6.88388 10.6019 7.12355C10.1318 7.36321 9.73285 7.72193 9.44471 8.16391H9.37059V7.00979H6.88235V15.4804H9.52941V10.9751C9.49115 10.5137 9.63649 10.0558 9.93388 9.70092C10.2313 9.34604 10.6566 9.12284 11.1176 9.07979H11.2182C12.06 9.07979 12.6847 9.60921 12.6847 10.9433V15.4804H15.3318L15.3529 10.3345Z" fill="#4E4E4E"/>
</svg>
