<svg width="19" height="18" viewBox="0 0 19 18" fill="none" xmlns="http://www.w3.org/2000/svg">
<path d="M15.4936 0H4.29689C2.44243 0 0.937866 1.50456 0.937866 3.35902V14.5557C0.937866 16.4102 2.44243 17.9148 4.29689 17.9148H10.5017V10.9751H8.16909V8.26925H10.5017V6.27483C10.5017 3.96551 11.9247 2.70588 13.9891 2.70588C14.9688 2.70588 15.8202 2.77586 16.0651 2.81085V5.22514L14.6422 5.2368C13.5109 5.2368 13.3009 5.76165 13.3009 6.54309V8.26925H15.9718L15.6219 10.9751H13.3009V17.9148H15.4936C17.3481 17.9148 18.8526 16.4102 18.8526 14.5557V3.35902C18.8526 1.50456 17.3481 0 15.4936 0Z" fill="#4E4E4E"/>
</svg>
