<svg width="18" height="19" viewBox="0 0 18 19" fill="none" xmlns="http://www.w3.org/2000/svg">
<path fill-rule="evenodd" clip-rule="evenodd" d="M5.72892 5.85637C6.59647 4.98882 7.77311 4.50144 9 4.50144C10.2269 4.50144 11.4035 4.98882 12.2711 5.85637C13.1386 6.72391 13.626 7.90055 13.626 9.12744C13.626 10.3543 13.1386 11.531 12.2711 12.3985C11.4035 13.2661 10.2269 13.7534 9 13.7534C7.77311 13.7534 6.59647 13.2661 5.72892 12.3985C4.86138 11.531 4.374 10.3543 4.374 9.12744C4.374 7.90055 4.86138 6.72391 5.72892 5.85637ZM7.8508 11.9019C8.21514 12.0528 8.60564 12.1304 9 12.1304C9.79644 12.1304 10.5603 11.8141 11.1234 11.2509C11.6866 10.6877 12.003 9.92389 12.003 9.12744C12.003 8.331 11.6866 7.56717 11.1234 7.004C10.5603 6.44083 9.79644 6.12444 9 6.12444C8.60564 6.12444 8.21514 6.20212 7.8508 6.35303C7.48646 6.50395 7.15541 6.72515 6.87656 7.004C6.5977 7.28286 6.3765 7.6139 6.22559 7.97824C6.07467 8.34259 5.997 8.73308 5.997 9.12744C5.997 9.5218 6.07467 9.9123 6.22559 10.2766C6.3765 10.641 6.5977 10.972 6.87656 11.2509C7.15541 11.5297 7.48646 11.7509 7.8508 11.9019Z" fill="#4E4E4E"/>
<path d="M14.6515 5.19067C14.8566 4.98559 14.9718 4.70746 14.9718 4.41744C14.9718 4.12743 14.8566 3.84929 14.6515 3.64422C14.4464 3.43915 14.1683 3.32394 13.8783 3.32394C13.5883 3.32394 13.3101 3.43915 13.1051 3.64422C12.9 3.84929 12.7848 4.12743 12.7848 4.41744C12.7848 4.70746 12.9 4.98559 13.1051 5.19067C13.3101 5.39574 13.5883 5.51094 13.8783 5.51094C14.1683 5.51094 14.4464 5.39574 14.6515 5.19067Z" fill="#4E4E4E"/>
<path fill-rule="evenodd" clip-rule="evenodd" d="M5.2896 0.181441C6.2496 0.137641 6.5556 0.127441 9 0.127441C11.445 0.127441 11.7504 0.138241 12.7098 0.181441C13.668 0.225241 14.3232 0.378242 14.8956 0.599641C15.4959 0.825756 16.0397 1.17997 16.4892 1.63764C16.947 2.08723 17.3012 2.63128 17.5272 3.23184C17.7498 3.80424 17.9022 4.45884 17.946 5.41704C17.9898 6.37704 18 6.68304 18 9.12744C18 11.5718 17.9898 11.8778 17.946 12.8378C17.9022 13.796 17.7498 14.4506 17.5278 15.023C17.3017 15.6233 16.9475 16.1672 16.4898 16.6166C16.0398 17.075 15.4956 17.429 14.8956 17.6546C14.3232 17.8772 13.6686 18.0296 12.7104 18.0734C11.7504 18.1172 11.4444 18.1274 9 18.1274C6.5556 18.1274 6.2496 18.1172 5.2896 18.0734C4.3314 18.0296 3.6768 17.8772 3.1044 17.6552C2.50411 17.4291 1.96029 17.0749 1.5108 16.6172C1.0524 16.1672 0.6984 15.623 0.4728 15.023C0.2502 14.4506 0.0978 13.796 0.0539999 12.8378C0.0102 11.8778 0 11.5724 0 9.12744C0 6.68244 0.0107999 6.37704 0.0539999 5.41764C0.0978 4.45944 0.2508 3.80424 0.4722 3.23184C0.698315 2.63154 1.05253 2.08772 1.5102 1.63824C1.9602 1.17984 2.5044 0.825841 3.1044 0.600241C3.6768 0.377641 4.3314 0.225241 5.2896 0.181441ZM12.6372 1.80144C11.688 1.75824 11.403 1.74924 9 1.74924C6.597 1.74924 6.312 1.75824 5.3628 1.80144C4.4856 1.84164 4.0092 1.98804 3.6918 2.11164C3.30085 2.25563 2.94716 2.48547 2.6568 2.78424C2.3424 3.09924 2.1468 3.39924 1.9842 3.81924C1.86 4.13664 1.7142 4.61304 1.674 5.49024C1.6308 6.43944 1.6218 6.72444 1.6218 9.12744C1.6218 11.5304 1.6308 11.8154 1.674 12.7646C1.7142 13.6418 1.8606 14.1182 1.9842 14.4356C2.12828 14.8265 2.35811 15.1802 2.6568 15.4706C2.9472 15.7694 3.30087 15.9992 3.6918 16.1432C4.0092 16.2674 4.4856 16.4132 5.3628 16.4534C6.312 16.4966 6.5964 16.5056 9 16.5056C11.4036 16.5056 11.688 16.4966 12.6372 16.4534C13.5144 16.4132 13.9908 16.2668 14.3082 16.1432C14.6992 15.9993 15.0528 15.7694 15.3432 15.4706C15.6419 15.1802 15.8718 14.8266 16.0158 14.4356C16.14 14.1182 16.2858 13.6418 16.326 12.7646C16.3692 11.8154 16.3782 11.5304 16.3782 9.12744C16.3782 6.72444 16.3692 6.43944 16.326 5.49024C16.2858 4.61304 16.1394 4.13664 16.0158 3.81924C15.8532 3.39924 15.6582 3.09924 15.3432 2.78424C15.0282 2.46984 14.7282 2.27424 14.3082 2.11164C13.9908 1.98744 13.5144 1.84164 12.6372 1.80144Z" fill="#4E4E4E"/>
</svg>
