<svg width="157" height="29" viewBox="0 0 157 29" fill="none" xmlns="http://www.w3.org/2000/svg">
<g clip-path="url(#clip0_3887_1285)">
<path d="M33.067 12.0957V24.0947H36.2609V18.4153H42.0068V15.7728H36.2609V12.5572H42.324V9.81055H33.0596V12.0957H33.067Z" fill="#010101"/>
<path d="M54.7453 21.3556C54.406 20.8494 54.0889 20.3805 53.7938 19.9413L52.5177 18.0358C52.8349 17.9464 53.13 17.8422 53.3881 17.7008C54.0962 17.3212 54.6126 16.8001 54.9297 16.1451C55.2543 15.4901 55.4092 14.7532 55.4092 13.9344C55.4092 12.8997 55.2026 12.0809 54.7896 11.478C54.3765 10.8751 53.7717 10.4508 52.9751 10.1903C52.1784 9.92976 51.2048 9.80322 50.0541 9.80322H44.6253V24.0874H47.8339V18.8173H49.5378L50.895 20.9685C51.2048 21.4598 51.5294 21.9585 51.8613 22.4721C52.1932 22.9857 52.5399 23.5217 52.8939 24.0874H56.5967C56.3533 23.7226 56.0656 23.2983 55.7485 22.822C55.4239 22.3456 55.0994 21.8543 54.7601 21.3481L54.7453 21.3556ZM47.8266 15.1105V12.3936H49.9509C50.2017 12.3936 50.4524 12.4159 50.7032 12.4606C50.954 12.5052 51.1753 12.602 51.3818 12.7434C51.581 12.8848 51.7433 13.0784 51.8613 13.3315C51.9793 13.5845 52.0383 13.9121 52.0383 14.3214C52.0383 14.8723 51.9424 15.2965 51.758 15.6166C51.5736 15.9292 51.3007 16.1526 50.9393 16.2865C50.5778 16.4131 50.1353 16.4801 49.6042 16.4801H47.8266V15.1179V15.1105Z" fill="#010101"/>
<path d="M70.7662 19.264L69.1877 14.3512C68.9 13.4803 68.6493 12.6913 68.4206 11.9842C68.1919 11.277 67.9559 10.5476 67.7199 9.80322H63.5081C63.2795 10.5252 63.0434 11.2398 62.8148 11.9544C62.5861 12.669 62.3279 13.4654 62.0403 14.3512L60.4397 19.2491C60.1963 20.0083 59.9381 20.8122 59.6578 21.6608C59.3849 22.5093 59.1193 23.3207 58.8686 24.0874H62.1435C62.3648 23.3356 62.5861 22.5466 62.8221 21.7352C62.8885 21.5193 62.9475 21.3109 63.0065 21.1025H68.1034C68.1624 21.3184 68.2214 21.5268 68.2878 21.7501C68.5091 22.5465 68.7304 23.3281 68.9443 24.0874H72.3225C72.0791 23.3281 71.821 22.5242 71.5554 21.6905C71.2899 20.8569 71.0244 20.0455 70.7662 19.2565V19.264ZM65.7062 12.602L67.4174 18.6461H63.7294L65.4702 12.602H65.7062Z" fill="#010101"/>
<path d="M91.1758 19.4498L90.571 14.6413C90.4603 13.7629 90.3571 12.9367 90.2612 12.17C90.1653 11.4033 90.0694 10.6143 89.9661 9.81787H86.6985C86.3961 10.6664 86.1011 11.4554 85.8281 12.1849C85.5552 12.9144 85.2749 13.6513 85.002 14.3882L83.3645 18.7501H83.1433L81.4541 14.3808C81.1665 13.6438 80.8862 12.9069 80.5985 12.1626C80.3108 11.4182 80.0084 10.6367 79.6912 9.82531H76.3868C76.2909 10.6367 76.195 11.4331 76.0991 12.1998C76.0032 12.9665 75.9073 13.7853 75.7893 14.6413L75.2066 19.4275C75.1033 20.3058 75.0001 21.1172 74.9115 21.8615C74.8156 22.6133 74.7198 23.3577 74.6239 24.1095H77.6702C77.7882 23.1046 77.9062 22.1518 78.0095 21.2511C78.1201 20.343 78.216 19.4945 78.3119 18.698L78.7176 15.3335H78.9389L80.3108 18.9809C80.5321 19.554 80.7534 20.1421 80.9747 20.7375C81.196 21.333 81.4172 21.9211 81.6385 22.4942C81.8524 23.0674 82.0516 23.6033 82.236 24.1095H84.3972C84.6553 23.3353 84.9356 22.5091 85.2381 21.6308C85.5405 20.7524 85.8355 19.8666 86.1379 18.9734L87.3697 15.3335H87.591L88.0115 18.7203C88.1074 19.5093 88.2032 20.3505 88.3213 21.2586C88.4319 22.1592 88.5499 23.112 88.6679 24.1169H91.7733C91.6774 23.3577 91.5889 22.6059 91.493 21.8689C91.3971 21.132 91.2938 20.3356 91.1906 19.4647L91.1758 19.4498Z" fill="#010101"/>
<path d="M99.2674 21.4H97.2537V18.1472H103.14V15.6462H97.2537V12.5124H103.457V9.81787H94.0525V24.102H103.546V21.4075H99.2674V21.4Z" fill="#010101"/>
<path d="M105.839 12.6838H110.118V24.0947H113.37V12.6838H117.641V9.81055H105.839V12.6838Z" fill="#010101"/>
<path d="M131.825 19.264L130.247 14.3512C129.959 13.4803 129.708 12.6913 129.48 11.9842C129.251 11.277 129.015 10.5476 128.779 9.80322H124.567C124.339 10.5252 124.103 11.2398 123.874 11.9544C123.645 12.669 123.387 13.4654 123.1 14.3512L121.499 19.2491C121.255 20.0083 120.997 20.8122 120.717 21.6608C120.444 22.5093 120.179 23.3207 119.928 24.0874H123.203C123.424 23.3356 123.645 22.5466 123.881 21.7352C123.948 21.5193 124.007 21.3109 124.066 21.1025H129.163C129.222 21.3184 129.281 21.5268 129.347 21.7501C129.568 22.5465 129.79 23.3281 130.004 24.0874H133.382C133.138 23.3281 132.88 22.5242 132.615 21.6905C132.349 20.8569 132.084 20.0455 131.825 19.2565V19.264ZM126.765 12.602L128.477 18.6461H124.789L126.529 12.602H126.765Z" fill="#010101"/>
<path d="M142.388 21.2215H138.936V9.81055H135.668V24.0947H145.206V21.2215H142.381H142.388Z" fill="#010101"/>
<path d="M154.957 21.4H150.701V18.1472H156.587V15.6462H150.701V12.5124H156.904V9.81787H147.5V24.102H156.993V21.4075H154.949L154.957 21.4Z" fill="#010101"/>
<path d="M22.7478 18.3112H13.4023C13.0188 18.3112 12.7164 18.6238 12.7164 19.0034V28.2929C12.7164 28.68 13.0262 28.9852 13.4023 28.9852H20.985C22.3422 28.9852 23.4412 27.8761 23.4412 26.5065V18.996C23.4412 18.6089 23.1314 18.3037 22.7552 18.3037L22.7478 18.3112Z" fill="url(#paint0_linear_3887_1285)"/>
<path d="M0.685976 16.5249H6.64585C7.02941 16.5249 7.33183 16.2123 7.33183 15.8327V6.00719C7.33183 5.62013 7.02203 5.31494 6.64585 5.31494H2.45624C1.09904 5.31494 0 6.42403 0 7.79364V15.8327C0 16.2197 0.309796 16.5249 0.685976 16.5249Z" fill="url(#paint1_linear_3887_1285)"/>
<path d="M10.2528 18.311H0.685976C0.30242 18.311 0 18.6237 0 19.0033V26.5138C0 27.8834 1.09904 28.9925 2.45624 28.9925H10.2528C10.6363 28.9925 10.9387 28.6799 10.9387 28.3003V19.0107C10.9387 18.6237 10.6289 18.3185 10.2528 18.3185V18.311Z" fill="url(#paint2_linear_3887_1285)"/>
<path d="M22.6372 4.04932H10.9019C10.5183 4.04932 10.2159 4.36194 10.2159 4.74156V14.567C10.2159 14.9541 10.5257 15.2593 10.9019 15.2593H24.4075C24.791 15.2593 25.0934 14.9466 25.0934 14.567V6.52801C25.0934 5.1584 23.9944 4.04932 22.6372 4.04932Z" fill="url(#paint3_linear_3887_1285)"/>
<path d="M29.2757 2.85078C27.8005 2.68702 26.6277 1.5035 26.4654 0.0147948C26.4654 -0.00753577 26.4285 -0.00753577 26.4285 0.0147948C26.2662 1.5035 25.0934 2.68702 23.6182 2.85078C23.5961 2.85078 23.5961 2.888 23.6182 2.888C25.0934 3.05176 26.2662 4.23528 26.4285 5.72398C26.4285 5.74631 26.4654 5.74631 26.4654 5.72398C26.6277 4.23528 27.8005 3.05176 29.2757 2.888C29.2978 2.888 29.2978 2.85078 29.2757 2.85078Z" fill="url(#paint4_linear_3887_1285)"/>
</g>
<defs>
<linearGradient id="paint0_linear_3887_1285" x1="0.708102" y1="3.78882" x2="23.8828" y2="29.818" gradientUnits="userSpaceOnUse">
<stop stop-color="#2ABBAD"/>
<stop offset="1" stop-color="#0777AE"/>
</linearGradient>
<linearGradient id="paint1_linear_3887_1285" x1="-1.12854" y1="5.42659" x2="22.0388" y2="31.4633" gradientUnits="userSpaceOnUse">
<stop stop-color="#2ABBAD"/>
<stop offset="1" stop-color="#0777AE"/>
</linearGradient>
<linearGradient id="paint2_linear_3887_1285" x1="-6.1074" y1="9.85518" x2="17.0674" y2="35.8918" gradientUnits="userSpaceOnUse">
<stop stop-color="#2ABBAD"/>
<stop offset="1" stop-color="#0777AE"/>
</linearGradient>
<linearGradient id="paint3_linear_3887_1285" x1="7.08104" y1="-1.88318" x2="30.2558" y2="24.1534" gradientUnits="userSpaceOnUse">
<stop stop-color="#2ABBAD"/>
<stop offset="1" stop-color="#0777AE"/>
</linearGradient>
<linearGradient id="paint4_linear_3887_1285" x1="15.6373" y1="-9.49804" x2="38.8047" y2="16.5386" gradientUnits="userSpaceOnUse">
<stop stop-color="#2ABBAD"/>
<stop offset="1" stop-color="#0777AE"/>
</linearGradient>
<clipPath id="clip0_3887_1285">
<rect width="157" height="29" fill="white"/>
</clipPath>
</defs>
</svg>
