<svg width="55" height="38" viewBox="0 0 55 38" fill="none" xmlns="http://www.w3.org/2000/svg">
<rect x="0.765408" y="0.388821" width="53.6574" height="36.5492" rx="4.27704" fill="white" stroke="#D9D9D9" stroke-width="0.777643"/>
<path fill-rule="evenodd" clip-rule="evenodd" d="M27.9829 26.6839C26.1297 28.2832 23.7257 29.2486 21.0989 29.2486C15.2375 29.2486 10.486 24.4419 10.486 18.5125C10.486 12.5831 15.2375 7.77637 21.0989 7.77637C23.7258 7.77637 26.1297 8.74183 27.983 10.3411C29.8362 8.74186 32.2401 7.77643 34.867 7.77643C40.7283 7.77643 45.4799 12.5831 45.4799 18.5125C45.4799 24.4419 40.7283 29.2487 34.867 29.2487C32.2401 29.2487 29.8361 28.2832 27.9829 26.6839Z" fill="#ED0006"/>
<path fill-rule="evenodd" clip-rule="evenodd" d="M27.9829 26.6839C30.2648 24.7147 31.7118 21.7845 31.7118 18.5125C31.7118 15.2405 30.2648 12.3103 27.9829 10.3411C29.8361 8.74182 32.2401 7.77637 34.867 7.77637C40.7283 7.77637 45.4799 12.5831 45.4799 18.5125C45.4799 24.4419 40.7283 29.2486 34.867 29.2486C32.2401 29.2486 29.8361 28.2831 27.9829 26.6839Z" fill="#F9A000"/>
<path fill-rule="evenodd" clip-rule="evenodd" d="M27.9829 26.684C30.2648 24.7148 31.7117 21.7847 31.7117 18.5127C31.7117 15.2406 30.2648 12.3105 27.9829 10.3413C25.7011 12.3105 24.2542 15.2406 24.2542 18.5127C24.2542 21.7847 25.7011 24.7148 27.9829 26.684Z" fill="#FF5E00"/>
</svg>
