<svg width="55" height="38" viewBox="0 0 55 38" fill="none" xmlns="http://www.w3.org/2000/svg">
<rect x="0.577298" y="0.388821" width="53.6574" height="36.5492" rx="4.27704" fill="white" stroke="#D9D9D9" stroke-width="0.777643"/>
<path fill-rule="evenodd" clip-rule="evenodd" d="M15.5858 23.7041H13.1664C13.0009 23.7041 12.86 23.8244 12.8342 23.9878L11.8557 30.1919C11.8362 30.3144 11.931 30.4248 12.0552 30.4248H13.2103C13.3758 30.4248 13.5167 30.3044 13.5425 30.1407L13.8064 28.4674C13.8319 28.3035 13.973 28.1833 14.1382 28.1833H14.9041C16.4979 28.1833 17.4176 27.4121 17.658 25.8838C17.7662 25.2152 17.6626 24.6898 17.3494 24.3218C17.0056 23.9179 16.3956 23.7041 15.5858 23.7041ZM15.865 25.9701C15.7327 26.8383 15.0694 26.8383 14.428 26.8383H14.0629L14.319 25.2168C14.3342 25.1189 14.4191 25.0467 14.5182 25.0467H14.6855C15.1224 25.0467 15.5346 25.0467 15.7476 25.2957C15.8745 25.4444 15.9134 25.6651 15.865 25.9701ZM22.8181 25.9422H21.6595C21.5608 25.9422 21.4755 26.0144 21.4603 26.1125L21.409 26.4365L21.328 26.3191C21.0772 25.955 20.5179 25.8334 19.9596 25.8334C18.6792 25.8334 17.5858 26.8031 17.3728 28.1634C17.2621 28.8418 17.4194 29.4906 17.8043 29.9431C18.1575 30.3591 18.6627 30.5325 19.2637 30.5325C20.2953 30.5325 20.8674 29.8691 20.8674 29.8691L20.8157 30.1911C20.7962 30.3142 20.891 30.4246 21.0145 30.4246H22.0581C22.2241 30.4246 22.3641 30.3043 22.3903 30.1405L23.0165 26.175C23.0363 26.0531 22.9419 25.9422 22.8181 25.9422ZM21.2031 28.1972C21.0912 28.8591 20.5659 29.3035 19.896 29.3035C19.5595 29.3035 19.2905 29.1956 19.118 28.9911C18.9467 28.7881 18.8816 28.499 18.9361 28.1771C19.0406 27.5208 19.5748 27.0621 20.2345 27.0621C20.5634 27.0621 20.8309 27.1712 21.0071 27.3775C21.1836 27.5859 21.2536 27.8767 21.2031 28.1972ZM27.8243 25.9421H28.9887C29.1517 25.9421 29.2469 26.125 29.1542 26.2587L25.2818 31.8483C25.2191 31.9388 25.1158 31.9926 25.0055 31.9926H23.8426C23.6789 31.9926 23.5833 31.8083 23.6781 31.6742L24.8839 29.9722L23.6015 26.2088C23.5571 26.078 23.6537 25.9421 23.7929 25.9421H24.9369C25.0856 25.9421 25.2167 26.0397 25.2596 26.1819L25.9401 28.4549L27.546 26.0896C27.6089 25.9973 27.7133 25.9421 27.8243 25.9421Z" fill="#253B80"/>
<path fill-rule="evenodd" clip-rule="evenodd" d="M40.4478 30.1918L41.4407 23.8742C41.4559 23.7761 41.5409 23.7039 41.6396 23.7036H42.7575C42.8809 23.7036 42.9757 23.8143 42.9562 23.9367L41.977 30.1405C41.9515 30.3043 41.8107 30.4246 41.6448 30.4246H40.6465C40.5231 30.4246 40.4283 30.3142 40.4478 30.1918ZM32.8434 23.7039H30.4235C30.2583 23.7039 30.1175 23.8243 30.0917 23.9877L29.1131 30.1918C29.0937 30.3142 29.1885 30.4246 29.3121 30.4246H30.5537C30.6691 30.4246 30.7678 30.3404 30.7858 30.2258L31.0635 28.4672C31.089 28.3033 31.2301 28.1832 31.3953 28.1832H32.1609C33.7549 28.1832 34.6745 27.4119 34.915 25.8836C35.0236 25.215 34.9193 24.6897 34.6063 24.3216C34.2626 23.9178 33.6531 23.7039 32.8434 23.7039ZM33.1225 25.9699C32.9906 26.8381 32.3272 26.8381 31.6854 26.8381H31.3207L31.5772 25.2167C31.5924 25.1188 31.6766 25.0466 31.776 25.0466H31.9433C32.3799 25.0466 32.7925 25.0466 33.0053 25.2956C33.1323 25.4442 33.171 25.6649 33.1225 25.9699ZM40.075 25.9421H38.9172C38.8177 25.9421 38.7332 26.0143 38.7183 26.1123L38.667 26.4363L38.5857 26.319C38.3349 25.9549 37.7759 25.8332 37.2177 25.8332C35.9373 25.8332 34.8441 26.8029 34.6311 28.1632C34.5208 28.8416 34.6775 29.4904 35.0624 29.9429C35.4162 30.3589 35.9207 30.5323 36.5217 30.5323C37.5533 30.5323 38.1253 29.8689 38.1253 29.8689L38.0737 30.191C38.0543 30.3141 38.149 30.4244 38.2733 30.4244H39.3165C39.4817 30.4244 39.6225 30.3041 39.6483 30.1404L40.2749 26.1749C40.294 26.0529 40.1992 25.9421 40.075 25.9421ZM38.4601 28.1971C38.3489 28.859 37.8229 29.3033 37.1528 29.3033C36.8171 29.3033 36.5476 29.1954 36.3749 28.9909C36.2036 28.7879 36.1393 28.4988 36.1931 28.177C36.2981 27.5206 36.8316 27.0619 37.4914 27.0619C37.8205 27.0619 38.0878 27.1711 38.2641 27.3774C38.4413 27.5858 38.5113 27.8765 38.4601 28.1971Z" fill="#179BD7"/>
<path d="M24.5396 21.4842L24.8371 19.595L24.1745 19.5796H21.0107L23.2094 5.63826C23.2161 5.59617 23.2384 5.55692 23.2708 5.52906C23.3032 5.5012 23.3448 5.48584 23.388 5.48584H28.7227C30.4937 5.48584 31.7159 5.85438 32.354 6.58178C32.6531 6.92303 32.8437 7.27961 32.9359 7.67204C33.0325 8.08381 33.0343 8.57576 32.9398 9.17577L32.9329 9.21956V9.60402L33.2322 9.77351C33.4842 9.90715 33.6842 10.0601 33.8378 10.2353C34.0938 10.5271 34.2594 10.8979 34.3293 11.3375C34.4015 11.7897 34.3776 12.3277 34.2594 12.9368C34.1228 13.6375 33.9021 14.2477 33.6042 14.7471C33.3299 15.2072 32.9807 15.5887 32.5662 15.8845C32.1704 16.1655 31.7 16.3788 31.1683 16.5153C30.6529 16.6494 30.0655 16.7172 29.4211 16.7172H29.0059C28.7091 16.7172 28.4206 16.8241 28.1944 17.0158C27.9675 17.2114 27.8172 17.4786 27.7712 17.771L27.7399 17.9411L27.2144 21.2709L27.1905 21.3932C27.1843 21.432 27.1735 21.4513 27.1576 21.4644C27.1433 21.4762 27.1229 21.4842 27.1029 21.4842H24.5396Z" fill="#253B80"/>
<path d="M33.5154 9.26416C33.4995 9.36596 33.4813 9.47003 33.4609 9.57695C32.7572 13.189 30.3505 14.4368 27.2764 14.4368H25.7113C25.3354 14.4368 25.0186 14.7098 24.96 15.0806L24.1586 20.1628L23.9317 21.6033C23.8935 21.8468 24.0813 22.0663 24.3269 22.0663H27.103C27.4317 22.0663 27.7109 21.8275 27.7626 21.5033L27.79 21.3622L28.3127 18.0453L28.3463 17.8634C28.3973 17.5381 28.6771 17.2993 29.0059 17.2993H29.421C32.1106 17.2993 34.2161 16.2073 34.8315 13.0474C35.0885 11.7273 34.9554 10.6251 34.2752 9.84995C34.0694 9.6162 33.814 9.42226 33.5154 9.26416Z" fill="#179BD7"/>
<path d="M32.7792 8.97078C32.6718 8.93949 32.5608 8.91105 32.447 8.88546C32.3328 8.86045 32.2156 8.83826 32.0951 8.81893C31.673 8.75068 31.2107 8.71826 30.7153 8.71826H26.534C26.431 8.71826 26.3333 8.74157 26.2457 8.78367C26.0528 8.87636 25.9096 9.05894 25.8749 9.28244L24.9853 14.9163L24.9597 15.0807C25.0183 14.7098 25.3351 14.4368 25.711 14.4368H27.2761C30.3502 14.4368 32.7571 13.1885 33.4606 9.57704C33.4816 9.47012 33.4992 9.36605 33.5151 9.26425C33.3372 9.16984 33.1443 9.08908 32.9367 9.02025C32.8856 9.00319 32.8328 8.9867 32.7792 8.97078Z" fill="#222D65"/>
<path d="M25.8749 9.28247C25.9096 9.05895 26.0531 8.87639 26.2458 8.78426C26.334 8.74216 26.4312 8.71885 26.5341 8.71885H30.7155C31.2109 8.71885 31.6732 8.75127 32.0951 8.81952C32.2158 8.83885 32.333 8.86104 32.4473 8.88605C32.561 8.91166 32.6719 8.9401 32.7794 8.97136C32.8328 8.98729 32.8857 9.00378 32.9374 9.02028C33.145 9.08909 33.3379 9.17043 33.5158 9.26427C33.7252 7.92945 33.5142 7.02062 32.7925 6.19766C31.9969 5.29168 30.5608 4.90381 28.7232 4.90381H23.3884C23.013 4.90381 22.693 5.17679 22.6349 5.54817L20.4129 19.6328C20.3691 19.9115 20.584 20.1629 20.8649 20.1629H24.1586L24.9855 14.9163L25.8749 9.28247Z" fill="#253B80"/>
</svg>
