<svg width="55" height="38" viewBox="0 0 55 38" fill="none" xmlns="http://www.w3.org/2000/svg">
<rect x="0.388821" y="0.388821" width="53.6574" height="36.5492" rx="4.27704" fill="white" stroke="#D9D9D9" stroke-width="0.777643"/>
<path fill-rule="evenodd" clip-rule="evenodd" d="M16.5253 25.2859H13.2276L10.7547 15.8517C10.6373 15.4177 10.3881 15.0341 10.0215 14.8533C9.10667 14.3988 8.09855 14.0372 6.99878 13.8548V13.4916H12.3111C13.0443 13.4916 13.5942 14.0372 13.6858 14.6709L14.9689 21.476L18.265 13.4916H21.4711L16.5253 25.2859ZM23.304 25.2859H20.1896L22.7541 13.4916H25.8685L23.304 25.2859ZM29.8978 16.7591C29.9895 16.1239 30.5394 15.7607 31.1809 15.7607C32.189 15.6695 33.2872 15.8519 34.2037 16.3047L34.7535 13.7653C33.8371 13.4021 32.8289 13.2197 31.9141 13.2197C28.8913 13.2197 26.6918 14.8534 26.6918 17.1208C26.6918 18.8456 28.2498 19.7513 29.3496 20.2969C30.5394 20.841 30.9976 21.2042 30.906 21.7482C30.906 22.5643 29.9895 22.9275 29.0746 22.9275C27.9748 22.9275 26.8751 22.6555 25.8685 22.2011L25.3187 24.742C26.4184 25.1948 27.6082 25.3772 28.708 25.3772C32.0974 25.4668 34.2037 23.8347 34.2037 21.385C34.2037 18.3 29.8978 18.1192 29.8978 16.7591ZM45.1032 25.2859L42.6304 13.4916H39.9742C39.4243 13.4916 38.8744 13.8548 38.6911 14.3989L34.112 25.2859H37.318L37.9579 23.5626H41.8972L42.2638 25.2859H45.1032ZM40.4325 16.6679L41.3474 21.1129H38.7828L40.4325 16.6679Z" fill="#172B85"/>
</svg>
